<svg xmlns="http://www.w3.org/2000/svg" xmlns:xlink="http://www.w3.org/1999/xlink" width="19.944" height="19.475" viewBox="0 0 19.944 19.475">
  <defs>
    <clipPath id="clip-path">
      <rect id="Rectangle_2829" data-name="Rectangle 2829" width="19.944" height="19.475" transform="translate(0)" fill="#feda32"/>
    </clipPath>
  </defs>
  <g id="Group_3685" data-name="Group 3685" clip-path="url(#clip-path)">
    <path id="Path_1500" data-name="Path 1500" d="M87.118,87.791H76.779c-.005-.109-.014-.2-.014-.292q0-2.773,0-5.547a5.234,5.234,0,0,1,1.463-3.883,5.165,5.165,0,0,1,4.858-1.363,4.911,4.911,0,0,1,4.039,4.945c.028,1.994.01,3.989.012,5.983,0,.041-.009.082-.018.157m-1.252-5.332a5.692,5.692,0,0,0-.541-2.244,3.473,3.473,0,0,0-1.87-1.864.459.459,0,0,0-.61.21.481.481,0,0,0,.256.62,4.448,4.448,0,0,1,.835.577,3.287,3.287,0,0,1,.872,1.692,10.949,10.949,0,0,1,.145,1.139c.037.335.2.511.476.5s.432-.2.438-.531c0-.042,0-.083,0-.1" transform="translate(-71.978 -71.812)" fill="#feda32"/>
    <path id="Path_1501" data-name="Path 1501" d="M28.235,273.523a2.572,2.572,0,0,1,1.97-2.5,3.108,3.108,0,0,1,.646-.077q5.593-.007,11.186,0a2.613,2.613,0,0,1,2.632,2.437,1.217,1.217,0,0,1-.008.146Z" transform="translate(-26.473 -254.048)" fill="#feda32"/>
    <path id="Path_1502" data-name="Path 1502" d="M153.61,1.763c0,.4,0,.808,0,1.212,0,.333-.167.514-.448.514s-.448-.181-.45-.512q-.007-1.228,0-2.455A.462.462,0,0,1,153.158,0c.266,0,.446.2.45.52.005.414,0,.829,0,1.243" transform="translate(-143.187 0)" fill="#feda32"/>
    <path id="Path_1503" data-name="Path 1503" d="M1.743,152.717c.414,0,.829,0,1.243,0,.328,0,.509.175.5.458a.434.434,0,0,1-.492.439q-1.243.008-2.486,0a.452.452,0,1,1-.012-.9c.414-.006.829,0,1.243,0" transform="translate(0 -143.195)" fill="#feda32"/>
    <path id="Path_1504" data-name="Path 1504" d="M265.694,153.612c-.414,0-.829,0-1.243,0-.326,0-.507-.179-.5-.462a.435.435,0,0,1,.5-.435q1.243-.008,2.486,0a.452.452,0,1,1,0,.9c-.414.006-.829,0-1.243,0" transform="translate(-247.496 -143.189)" fill="#feda32"/>
    <path id="Path_1505" data-name="Path 1505" d="M240.795,44.063a2.077,2.077,0,0,1-.228.388q-.816.835-1.65,1.653a.456.456,0,0,1-.687.034.435.435,0,0,1,.042-.662c.553-.563,1.1-1.128,1.68-1.666a.606.606,0,0,1,.495-.107c.134.037.227.226.349.359" transform="translate(-223.252 -40.965)" fill="#feda32"/>
    <path id="Path_1506" data-name="Path 1506" d="M42.161,43.732a2.071,2.071,0,0,1,.39.228q.833.814,1.649,1.646a.463.463,0,0,1,.034.688.431.431,0,0,1-.66-.043c-.562-.551-1.126-1.1-1.663-1.677a.6.6,0,0,1-.107-.492c.036-.134.223-.227.357-.35" transform="translate(-39.184 -41.006)" fill="#feda32"/>
  </g>
</svg>
