<svg xmlns="http://www.w3.org/2000/svg" xmlns:xlink="http://www.w3.org/1999/xlink" width="21.527" height="24.199" viewBox="0 0 21.527 24.199">
  <defs>
    <clipPath id="clip-path">
      <rect id="Rectangle_1766" data-name="Rectangle 1766" width="19.395" height="18.938" fill="#b1b1b1"/>
    </clipPath>
    <filter id="Path_499" x="0" y="2.325" width="21.527" height="21.874" filterUnits="userSpaceOnUse">
      <feOffset dy="2" input="SourceAlpha"/>
      <feGaussianBlur result="blur"/>
      <feFlood flood-color="#fff"/>
      <feComposite operator="in" in2="blur"/>
      <feComposite in="SourceGraphic"/>
    </filter>
  </defs>
  <g id="Group_3112" data-name="Group 3112" transform="translate(1.507)">
    <g id="Group_2092" data-name="Group 2092" transform="translate(0 0)">
      <g id="Group_2090" data-name="Group 2090" clip-path="url(#clip-path)">
        <path id="Path_492" data-name="Path 492" d="M86.833,87.482H76.778c-.005-.106-.014-.2-.014-.284q0-2.7,0-5.394a5.09,5.09,0,0,1,1.423-3.776A5.023,5.023,0,0,1,82.911,76.7a4.776,4.776,0,0,1,3.928,4.809c.028,1.939.01,3.879.011,5.818,0,.04-.009.079-.017.152M85.615,82.3a5.536,5.536,0,0,0-.527-2.182A3.377,3.377,0,0,0,83.27,78.3a.446.446,0,0,0-.593.2.467.467,0,0,0,.249.6,4.325,4.325,0,0,1,.812.561,3.2,3.2,0,0,1,.848,1.645,10.649,10.649,0,0,1,.141,1.107c.036.326.193.5.463.49s.42-.192.426-.517c0-.04,0-.081,0-.1" transform="translate(-72.11 -71.944)" fill="#b1b1b1"/>
        <path id="Path_493" data-name="Path 493" d="M28.235,273.452a2.5,2.5,0,0,1,1.916-2.434,3.017,3.017,0,0,1,.628-.075q5.439-.007,10.878,0a2.541,2.541,0,0,1,2.56,2.37,1.181,1.181,0,0,1-.007.141Z" transform="translate(-26.521 -254.513)" fill="#b1b1b1"/>
        <path id="Path_494" data-name="Path 494" d="M153.585,1.714c0,.393,0,.786,0,1.179,0,.324-.163.5-.436.5s-.436-.176-.438-.5q-.007-1.194,0-2.387A.449.449,0,0,1,153.146,0c.258,0,.434.2.438.506.005.4,0,.806,0,1.209" transform="translate(-143.449 0)" fill="#b1b1b1"/>
        <path id="Path_495" data-name="Path 495" d="M1.695,152.717c.4,0,.806,0,1.209,0,.319,0,.495.171.49.446a.422.422,0,0,1-.478.427q-1.209.008-2.417,0a.439.439,0,1,1-.012-.872c.4-.006.806,0,1.209,0" transform="translate(0 -143.457)" fill="#b1b1b1"/>
        <path id="Path_496" data-name="Path 496" d="M265.646,153.587c-.4,0-.806,0-1.209,0-.317,0-.493-.174-.486-.45a.423.423,0,0,1,.482-.423q1.209-.007,2.417,0a.439.439,0,1,1,0,.872c-.4.006-.806,0-1.209,0" transform="translate(-247.949 -143.451)" fill="#b1b1b1"/>
        <path id="Path_497" data-name="Path 497" d="M240.72,44.052a2.019,2.019,0,0,1-.222.377q-.794.812-1.605,1.608a.443.443,0,0,1-.668.033.423.423,0,0,1,.041-.643c.538-.547,1.074-1.1,1.634-1.62a.589.589,0,0,1,.481-.1c.131.036.221.219.339.349" transform="translate(-223.661 -41.04)" fill="#b1b1b1"/>
        <path id="Path_498" data-name="Path 498" d="M42.151,43.732a2.015,2.015,0,0,1,.379.221q.81.792,1.6,1.6a.45.45,0,0,1,.033.669.419.419,0,0,1-.641-.041c-.547-.536-1.095-1.072-1.617-1.631a.588.588,0,0,1-.1-.479c.035-.13.217-.221.347-.341" transform="translate(-39.256 -41.081)" fill="#b1b1b1"/>
      </g>
    </g>
    <g transform="matrix(1, 0, 0, 1, -1.51, 0)" filter="url(#Path_499)">
      <path id="Path_499-2" data-name="Path 499" d="M17.462,0,0,15.679" transform="translate(2.6 3.83) rotate(4)" fill="none" stroke="#b1b1b1" stroke-linecap="round" stroke-width="2"/>
    </g>
  </g>
</svg>
